<?xml version="1.0" encoding="UTF-8"?>
<!DOCTYPE svg  PUBLIC '-//W3C//DTD SVG 1.0//EN'  'http://www.w3.org/TR/2001/REC-SVG-20010904/DTD/svg10.dtd'>
<svg width="28.542mm" height="28.542mm" clip-rule="evenodd" fill-rule="evenodd" image-rendering="optimizeQuality" shape-rendering="geometricPrecision" text-rendering="geometricPrecision" version="1.0" viewBox="0 0 41607 41607" xml:space="preserve" xmlns="http://www.w3.org/2000/svg">
 <defs>
  <style type="text/css">
   <![CDATA[
    .fil2 {fill:none}
    .fil1 {fill:#4D4D4D}
    .fil0 {fill:#CCCCCC}
    .fil3 {fill:#E80000;fill-rule:nonzero}
   ]]>
  </style>
    <clipPath id="d">
     <path d="m0 0h41607v41607h-41607v-41607z"/>
    </clipPath>
      <mask id="e">
  <linearGradient id="f" x1="21536" x2="57801" y1="15163" y2="48824" gradientUnits="userSpaceOnUse">
   <stop stop-color="#fff" offset="0"/>
   <stop stop-color="#fff" stop-opacity="0" offset="1"/>
  </linearGradient>
       <rect x="8513" y="8731" width="62312" height="46524" fill="url(#f)"/>
      </mask>
 </defs>
   <path class="fil0" d="m0 0h41607v41607h-41607v-41607z"/>
   <g clip-path="url(#d)">
     <path class="fil1" d="m40251 55252c6767-653 13534-1306 18629-3728s8518-6612 11941-10802l-38700-31987c-7868 4026-15736 8051-23605 12077l31735 34440z" mask="url(#e)"/>
   </g>
   <path class="fil2" d="m0 0h41607v41607h-41607v-41607z"/>
   <path class="fil3" d="m20803 12526c1804-3311 3608-4966 7215-4966 3983 0 7215 2966 7215 6622 0 6621-7215 13243-14430 19865-7214-6622-14429-13244-14429-19865 0-3656 3232-6622 7215-6622 3607 0 5411 1655 7214 4966z"/>
</svg>
