<?xml version="1.0" encoding="UTF-8"?>
<!DOCTYPE svg  PUBLIC '-//W3C//DTD SVG 1.0//EN'  'http://www.w3.org/TR/2001/REC-SVG-20010904/DTD/svg10.dtd'>
<svg width="28.542mm" height="28.542mm" clip-rule="evenodd" fill-rule="evenodd" image-rendering="optimizeQuality" shape-rendering="geometricPrecision" text-rendering="geometricPrecision" version="1.0" viewBox="0 0 2854 2854" xml:space="preserve" xmlns="http://www.w3.org/2000/svg">
 <defs>
  <style type="text/css">
   <![CDATA[
    .fil2 {fill:none}
    .fil0 {fill:#00D188}
    .fil1 {fill:#4D4D4D}
    .fil3 {fill:#E80000;fill-rule:nonzero}
   ]]>
  </style>
    <clipPath id="d">
     <path d="m0 0h2854v2854h-2854v-2854z"/>
    </clipPath>
      <mask id="e">
  <linearGradient id="f" x1="1477.4" x2="3965.1" y1="1040.2" y2="3349.3" gradientUnits="userSpaceOnUse">
   <stop stop-color="#fff" offset="0"/>
   <stop stop-color="#fff" stop-opacity="0" offset="1"/>
  </linearGradient>
       <rect x="584" y="599" width="4275" height="3192" fill="url(#f)"/>
      </mask>
 </defs>
   <path class="fil0" d="m0 0h2854v2854h-2854v-2854z"/>
   <g clip-path="url(#d)">
     <path class="fil1" d="m2761 3790c464-45 929-89 1278-255 350-167 584-454 819-741-885-732-1770-1463-2654-2195-540 276-1080 553-1620 829 726 787 1452 1575 2177 2362z" mask="url(#e)"/>
   </g>
   <path class="fil2" d="m0 0h2854v2854h-2854v-2854z"/>
   <path class="fil3" d="m1427 859c124-227 248-340 495-340 273 0 495 203 495 454 0 454-495 908-990 1363-495-455-990-909-990-1363 0-251 222-454 495-454 248 0 371 113 495 340z"/>
</svg>
