<?xml version="1.0" encoding="UTF-8"?>
<!DOCTYPE svg  PUBLIC '-//W3C//DTD SVG 1.0//EN'  'http://www.w3.org/TR/2001/REC-SVG-20010904/DTD/svg10.dtd'>
<svg width="28.542mm" height="28.542mm" clip-rule="evenodd" fill-rule="evenodd" image-rendering="optimizeQuality" shape-rendering="geometricPrecision" text-rendering="geometricPrecision" version="1.0" viewBox="0 0 1021 1021" xml:space="preserve" xmlns="http://www.w3.org/2000/svg">
 <defs>
  <style type="text/css">
   <![CDATA[
    .fil2 {fill:none}
    .fil1 {fill:#4D4D4D}
    .fil0 {fill:#FF99FF}
    .fil3 {fill:#E80000;fill-rule:nonzero}
   ]]>
  </style>
    <clipPath id="d">
     <path d="m0 0h1021v1021h-1021v-1021z"/>
    </clipPath>
      <mask id="e">
  <linearGradient id="f" x1="528.25" x2="1417.8" y1="371.93" y2="1197.6" gradientUnits="userSpaceOnUse">
   <stop stop-color="#fff" offset="0"/>
   <stop stop-color="#fff" stop-opacity="0" offset="1"/>
  </linearGradient>
       <rect x="209" y="214" width="1528" height="1141" fill="url(#f)"/>
      </mask>
 </defs>
   <path class="fil0" d="m0 0h1021v1021h-1021v-1021z"/>
   <g clip-path="url(#d)">
     <path class="fil1" d="m987 1355c166-16 332-32 457-91 125-60 209-162 293-265-316-262-633-523-949-785-193 99-386 198-579 296 259 282 519 564 778 845z" mask="url(#e)"/>
   </g>
   <path class="fil2" d="m0 0h1021v1021h-1021v-1021z"/>
   <path class="fil3" d="m510 307c45-81 89-122 177-122 98 0 177 73 177 163 0 162-177 325-354 487-177-162-354-325-354-487 0-90 80-163 177-163 89 0 133 41 177 122z"/>
</svg>
